<svg width="100" height="100" viewBox="0 0 100 100" fill="none" xmlns="http://www.w3.org/2000/svg">
<path d="M47.1875 63.8542C47.9514 64.6181 48.907 64.982 50.0542 64.9459C51.1986 64.9125 52.1528 64.5139 52.9167 63.75C53.6806 62.9862 54.0625 62.0139 54.0625 60.8334C54.0625 59.6528 53.6806 58.6806 52.9167 57.9167L49.1667 54.1667H62.6042C63.7847 54.1667 64.757 53.7667 65.5209 52.9667C66.2847 52.1695 66.6667 51.1806 66.6667 50C66.6667 48.8195 66.2681 47.8292 65.4708 47.0292C64.6708 46.232 63.6806 45.8334 62.5 45.8334H49.1667L53.0208 41.9792C53.7847 41.2153 54.15 40.2598 54.1167 39.1125C54.0806 37.9681 53.6806 37.0139 52.9167 36.25C52.1528 35.4862 51.1806 35.1042 50 35.1042C48.8195 35.1042 47.8472 35.4862 47.0833 36.25L36.25 47.0834C35.4861 47.8473 35.1042 48.8195 35.1042 50C35.1042 51.1806 35.4861 52.1528 36.25 52.9167L47.1875 63.8542ZM50 91.6667C44.2361 91.6667 38.8195 90.5723 33.75 88.3834C28.6806 86.1973 24.2708 83.2292 20.5208 79.4792C16.7708 75.7292 13.8028 71.3195 11.6167 66.25C9.42779 61.1806 8.33334 55.7639 8.33334 50C8.33334 44.2362 9.42779 38.8195 11.6167 33.75C13.8028 28.6806 16.7708 24.2709 20.5208 20.5209C24.2708 16.7709 28.6806 13.8014 33.75 11.6125C38.8195 9.42643 44.2361 8.33337 50 8.33337C55.7639 8.33337 61.1806 9.42643 66.25 11.6125C71.3195 13.8014 75.7292 16.7709 79.4792 20.5209C83.2292 24.2709 86.1972 28.6806 88.3833 33.75C90.5722 38.8195 91.6667 44.2362 91.6667 50C91.6667 55.7639 90.5722 61.1806 88.3833 66.25C86.1972 71.3195 83.2292 75.7292 79.4792 79.4792C75.7292 83.2292 71.3195 86.1973 66.25 88.3834C61.1806 90.5723 55.7639 91.6667 50 91.6667Z" fill="#FFA833"/>
</svg>
