<svg width="100" height="100" viewBox="0 0 100 100" fill="none" xmlns="http://www.w3.org/2000/svg">
<path d="M52.9166 63.75L63.75 52.9167C64.5139 52.1528 64.8958 51.1806 64.8958 50C64.8958 48.8195 64.5139 47.8473 63.75 47.0834L52.8125 36.1459C52.0486 35.382 51.0944 35.0167 49.95 35.05C48.8028 35.0862 47.8472 35.4862 47.0833 36.25C46.3194 37.0139 45.9375 37.9862 45.9375 39.1667C45.9375 40.3473 46.3194 41.3195 47.0833 42.0834L50.8333 45.8334H37.3958C36.2153 45.8334 35.243 46.232 34.4791 47.0292C33.7153 47.8292 33.3333 48.8195 33.3333 50C33.3333 51.1806 33.7333 52.1695 34.5333 52.9667C35.3305 53.7667 36.3194 54.1667 37.5 54.1667H50.8333L46.9791 58.0209C46.2153 58.7848 45.85 59.7403 45.8833 60.8875C45.9194 62.032 46.3194 62.9862 47.0833 63.75C47.8472 64.5139 48.8194 64.8959 50 64.8959C51.1805 64.8959 52.1528 64.5139 52.9166 63.75ZM50 91.6667C44.2361 91.6667 38.8194 90.5723 33.75 88.3834C28.6805 86.1973 24.2708 83.2292 20.5208 79.4792C16.7708 75.7292 13.8028 71.3195 11.6166 66.25C9.42776 61.1806 8.33331 55.7639 8.33331 50C8.33331 44.2362 9.42776 38.8195 11.6166 33.75C13.8028 28.6806 16.7708 24.2709 20.5208 20.5209C24.2708 16.7709 28.6805 13.8014 33.75 11.6125C38.8194 9.42643 44.2361 8.33337 50 8.33337C55.7639 8.33337 61.1805 9.42643 66.25 11.6125C71.3194 13.8014 75.7292 16.7709 79.4792 20.5209C83.2292 24.2709 86.1972 28.6806 88.3833 33.75C90.5722 38.8195 91.6667 44.2362 91.6667 50C91.6667 55.7639 90.5722 61.1806 88.3833 66.25C86.1972 71.3195 83.2292 75.7292 79.4792 79.4792C75.7292 83.2292 71.3194 86.1973 66.25 88.3834C61.1805 90.5723 55.7639 91.6667 50 91.6667Z" fill="#FFA833"/>
</svg>
