<svg width="50" height="50" viewBox="0 0 50 50" fill="none" xmlns="http://www.w3.org/2000/svg">
<path d="M33.9167 29C34.0833 27.625 34.2083 26.25 34.2083 24.8333C34.2083 23.4167 34.0833 22.0417 33.9167 20.6667H40.9583C41.2917 22 41.5 23.3958 41.5 24.8333C41.5 26.2708 41.2917 27.6667 40.9583 29M30.2292 40.5833C31.4792 38.2708 32.4375 35.7708 33.1042 33.1667H39.25C37.2316 36.6422 34.0294 39.275 30.2292 40.5833ZM29.7083 29H19.9583C19.75 27.625 19.625 26.25 19.625 24.8333C19.625 23.4167 19.75 22.0208 19.9583 20.6667H29.7083C29.8958 22.0208 30.0417 23.4167 30.0417 24.8333C30.0417 26.25 29.8958 27.625 29.7083 29ZM24.8333 41.4167C23.1042 38.9167 21.7083 36.1458 20.8542 33.1667H28.8125C27.9583 36.1458 26.5625 38.9167 24.8333 41.4167ZM16.5 16.5H10.4167C12.4143 13.015 15.6142 10.3781 19.4167 9.08333C18.1667 11.3958 17.2292 13.8958 16.5 16.5ZM10.4167 33.1667H16.5C17.2292 35.7708 18.1667 38.2708 19.4167 40.5833C15.6221 39.2743 12.4268 36.6411 10.4167 33.1667ZM8.70833 29C8.375 27.6667 8.16667 26.2708 8.16667 24.8333C8.16667 23.3958 8.375 22 8.70833 20.6667H15.75C15.5833 22.0417 15.4583 23.4167 15.4583 24.8333C15.4583 26.25 15.5833 27.625 15.75 29M24.8333 8.22917C26.5625 10.7292 27.9583 13.5208 28.8125 16.5H20.8542C21.7083 13.5208 23.1042 10.7292 24.8333 8.22917ZM39.25 16.5H33.1042C32.4521 13.9197 31.4866 11.429 30.2292 9.08333C34.0625 10.3958 37.25 13.0417 39.25 16.5ZM24.8333 4C13.3125 4 4 13.375 4 24.8333C4 30.3587 6.19493 35.6577 10.1019 39.5647C12.0365 41.4993 14.3331 43.0339 16.8608 44.0808C19.3884 45.1278 22.0975 45.6667 24.8333 45.6667C30.3587 45.6667 35.6577 43.4717 39.5647 39.5647C43.4717 35.6577 45.6667 30.3587 45.6667 24.8333C45.6667 22.0975 45.1278 19.3884 44.0808 16.8608C43.0339 14.3331 41.4993 12.0365 39.5647 10.1019C37.6302 8.16739 35.3335 6.63282 32.8059 5.58584C30.2783 4.53887 27.5692 4 24.8333 4Z" fill="#F17228"/>
</svg>
