<svg width="45" height="24" viewBox="0 0 45 24" fill="none" xmlns="http://www.w3.org/2000/svg">
<path d="M36.0622 8.25C35.0146 8.24414 34.0161 8.38477 33.081 8.6543L30.7677 5.4375H36.5614C37.4966 5.4375 38.2489 4.81055 38.2489 4.03125V2.15625C38.2489 1.37695 37.4966 0.75 36.5614 0.75H33.3763C32.8981 0.75 32.4411 0.919922 32.1247 1.21289L29.488 3.65625L27.8849 1.42969C27.5755 1.00781 27.027 0.75 26.4364 0.75H20.8114C20.1927 0.75 19.6864 1.17188 19.6864 1.6875V2.625C19.6864 3.14063 20.1927 3.5625 20.8114 3.5625H25.4802L26.8302 5.4375H16.0231C14.7786 4.08399 12.8661 3.09375 8.99892 3.09375H5.09658C4.14736 3.09375 3.35283 3.73828 3.37392 4.5293C3.38798 5.29102 4.14033 5.90625 5.06142 5.90625H8.99892C10.7216 5.90625 11.72 6.54492 12.3599 7.35938L11.5653 8.56055C10.6513 8.33203 9.67392 8.22656 8.66142 8.25586C3.92939 8.39649 0.11142 11.625 -0.00108015 15.5742C-0.11358 19.7988 3.95751 23.25 8.99892 23.25C13.1895 23.25 16.7122 20.8594 17.7177 17.625H23.638C24.6013 17.625 25.3677 16.957 25.3255 16.1543C25.1778 13.3945 26.556 10.6641 29.277 8.83008L30.156 10.0488C28.2153 11.4375 26.9849 13.5 27.006 15.8027C27.0411 19.8809 31.0278 23.2148 35.9216 23.25C40.956 23.291 45.0481 19.8809 45.006 15.6856C44.9567 11.6074 40.956 8.2793 36.0622 8.25ZM8.99892 20.4375C5.89814 20.4375 3.37392 18.334 3.37392 15.75C3.37392 13.166 5.89814 11.0625 8.99892 11.0625C9.29423 11.0625 9.58955 11.0801 9.87783 11.1211L6.95986 15.5391C6.34111 16.4766 7.15673 17.625 8.43642 17.625H14.1528C13.281 19.2773 11.2981 20.4375 8.99892 20.4375ZM41.6169 16.0078C41.4622 18.3867 39.156 20.3086 36.3083 20.4316C33.0669 20.5781 30.3739 18.4219 30.3739 15.75C30.3739 14.4961 30.9645 13.3594 31.9278 12.5215L35.4013 17.3496C35.7177 17.7949 36.4138 17.9356 36.9481 17.6719L37.9114 17.1914C38.4458 16.9277 38.6146 16.3477 38.2981 15.9023L34.881 11.1621C35.2466 11.0977 35.6192 11.0684 35.9989 11.0684C39.2052 11.0625 41.7856 13.3066 41.6169 16.0078Z" fill="white"/>
</svg>
