<svg width="50" height="50" viewBox="0 0 50 50" fill="none" xmlns="http://www.w3.org/2000/svg">
<path d="M25 43.75C21.917 43.7489 18.8819 42.9875 16.1634 41.5335C13.4449 40.0794 11.1269 37.9774 9.41467 35.4136C7.70241 32.8499 6.64875 29.9035 6.34697 26.8353C6.0452 23.7672 6.50463 20.672 7.68458 17.8237C8.86453 14.9755 10.7286 12.4622 13.1117 10.5063C15.4948 8.55048 18.3234 7.21242 21.3471 6.61066C24.3707 6.00889 27.4961 6.16198 30.4465 7.05638C33.3969 7.95077 36.0812 9.55887 38.2617 11.7383C38.5539 12.0312 38.718 12.4281 38.718 12.8418C38.718 13.2555 38.5539 13.6524 38.2617 13.9453C38.118 14.0924 37.9464 14.2092 37.7569 14.289C37.5673 14.3688 37.3638 14.4099 37.1582 14.4099C36.9526 14.4099 36.749 14.3688 36.5595 14.289C36.37 14.2092 36.1984 14.0924 36.0547 13.9453C33.5472 11.4357 30.2604 9.85403 26.7347 9.46046C23.209 9.0669 19.6543 9.88484 16.6552 11.7798C13.6561 13.6747 11.3911 16.5339 10.2327 19.887C9.07435 23.2402 9.09152 26.8877 10.2814 30.2298C11.4713 33.5719 13.7632 36.4096 16.78 38.2762C19.7968 40.1429 23.359 40.9273 26.8809 40.5006C30.4027 40.0738 33.6745 38.4613 36.1582 35.9281C38.6419 33.395 40.1896 30.0921 40.5469 26.5625H25C24.5856 26.5625 24.1882 26.3979 23.8951 26.1049C23.6021 25.8118 23.4375 25.4144 23.4375 25C23.4375 24.5856 23.6021 24.1882 23.8951 23.8951C24.1882 23.6021 24.5856 23.4375 25 23.4375H42.1875C42.6019 23.4375 42.9993 23.6021 43.2924 23.8951C43.5854 24.1882 43.75 24.5856 43.75 25C43.7397 29.9696 41.7609 34.7328 38.2468 38.2469C34.7328 41.7609 29.9696 43.7397 25 43.75Z" fill="black"/>
</svg>
