<svg width="32" height="31" viewBox="0 0 32 31" fill="none" xmlns="http://www.w3.org/2000/svg">
<path d="M28.3333 4H1.66667V0.666664H28.3333V4ZM16.6667 19.8333C16.6667 21.7333 17.3833 23.7667 18.3333 25.6667V27.3333H1.66667V17.3333H0V14L1.66667 5.66666H28.3333L29.5 11.5C28.3333 10.9667 27.1333 10.6667 25.8333 10.6667C20.8333 10.6667 16.6667 14.8333 16.6667 19.8333ZM15 17.3333H5V24H15V17.3333ZM31.6667 19.8333C31.6667 24.1667 25.8333 30.6667 25.8333 30.6667C25.8333 30.6667 20 24.1667 20 19.8333C20 16.6667 22.6667 14 25.8333 14C29 14 31.6667 16.6667 31.6667 19.8333ZM27.8333 20C27.8333 19 26.8333 18 25.8333 18C24.8333 18 23.8333 18.8333 23.8333 20C23.8333 21 24.6667 22 25.8333 22C27 22 28 21 27.8333 20Z" fill="black"/>
</svg>
