<svg width="100" height="100" viewBox="0 0 100 100" fill="none" xmlns="http://www.w3.org/2000/svg">
<path fill-rule="evenodd" clip-rule="evenodd" d="M5.84668 50C5.84668 38.2898 10.4985 27.0592 18.7789 18.7789C27.0592 10.4985 38.2898 5.84668 50 5.84668C61.7102 5.84668 72.9408 10.4985 81.2211 18.7789C89.5015 27.0592 94.1534 38.2898 94.1534 50C94.1534 61.7102 89.5015 72.9408 81.2211 81.2211C72.9408 89.5015 61.7102 94.1534 50 94.1534C38.2898 94.1534 27.0592 89.5015 18.7789 81.2211C10.4985 72.9408 5.84668 61.7102 5.84668 50ZM50 12.18C39.9695 12.18 30.3499 16.1646 23.2572 23.2572C16.1646 30.3499 12.18 39.9695 12.18 50C12.18 60.0305 16.1646 69.6502 23.2572 76.7428C30.3499 83.8354 39.9695 87.82 50 87.82C60.0305 87.82 69.6502 83.8354 76.7428 76.7428C83.8354 69.6502 87.82 60.0305 87.82 50C87.82 39.9695 83.8354 30.3499 76.7428 23.2572C69.6502 16.1646 60.0305 12.18 50 12.18ZM65.6934 34.3133C66.3183 34.9384 66.6693 35.7861 66.6693 36.67C66.6693 37.5539 66.3183 38.4016 65.6934 39.0267L54.7133 50L65.6934 60.9734C66.3193 61.5993 66.6709 62.4482 66.6709 63.3334C66.6709 64.2185 66.3193 65.0674 65.6934 65.6934C65.0674 66.3193 64.2185 66.6709 63.3334 66.6709C62.4482 66.6709 61.5993 66.3193 60.9734 65.6934L50 54.7133L39.0267 65.6934C38.7168 66.0033 38.3488 66.2491 37.9439 66.4168C37.539 66.5846 37.105 66.6709 36.6667 66.6709C36.2284 66.6709 35.7944 66.5846 35.3895 66.4168C34.9845 66.2491 34.6166 66.0033 34.3067 65.6934C33.9968 65.3834 33.7509 65.0155 33.5832 64.6106C33.4155 64.2056 33.3291 63.7716 33.3291 63.3334C33.3291 62.8951 33.4155 62.4611 33.5832 62.0561C33.7509 61.6512 33.9968 61.2833 34.3067 60.9734L45.2867 50L34.3067 39.0267C33.6808 38.4008 33.3291 37.5519 33.3291 36.6667C33.3291 35.7815 33.6808 34.9326 34.3067 34.3067C34.9326 33.6808 35.7815 33.3291 36.6667 33.3291C37.5519 33.3291 38.4008 33.6808 39.0267 34.3067L50 45.2867L60.9734 34.3067C61.283 33.9963 61.6508 33.75 62.0558 33.5819C62.4608 33.4139 62.8949 33.3274 63.3334 33.3274C63.7718 33.3274 64.2059 33.4139 64.6109 33.5819C65.0159 33.75 65.3837 33.9963 65.6934 34.3067V34.3133Z" fill="#ED1818" fill-opacity="0.8"/>
</svg>
